<?xml version="1.0" encoding="UTF-8" standalone="no"?>
<svg
   height="16"
   width="16"
   version="1.1"
   id="svg2"
   sodipodi:docname="user-status-pending-symbolic.svg"
   inkscape:version="1.4.2 (ebf0e940d0, 2025-05-08)"
   xmlns:inkscape="http://www.inkscape.org/namespaces/inkscape"
   xmlns:sodipodi="http://sodipodi.sourceforge.net/DTD/sodipodi-0.dtd"
   xmlns="http://www.w3.org/2000/svg"
   xmlns:svg="http://www.w3.org/2000/svg">
  <defs
     id="defs2" />
  <sodipodi:namedview
     id="namedview2"
     pagecolor="#ffffff"
     bordercolor="#000000"
     borderopacity="0.25"
     inkscape:showpageshadow="2"
     inkscape:pageopacity="0.0"
     inkscape:pagecheckerboard="0"
     inkscape:deskcolor="#d1d1d1"
     inkscape:zoom="51.0625"
     inkscape:cx="8"
     inkscape:cy="8"
     inkscape:window-width="1920"
     inkscape:window-height="1019"
     inkscape:window-x="0"
     inkscape:window-y="0"
     inkscape:window-maximized="1"
     inkscape:current-layer="g2" />
  <g
     color="#bebebe"
     transform="translate(-393 91)"
     id="g2">
    <path
       d="M398-89c-2.77 0-5 2.23-5 5s2.23 5 5 5h3.344L404-76v-3c2.77 0 5-2.23 5-5s-2.23-5-5-5zm0 3h6c1.108 0 2 .892 2 2s-.892 2-2 2h-6c-1.108 0-2-.892-2-2s.892-2 2-2z"
       fill="#666"
       opacity=".35"
       overflow="visible"
       style="marker:none;fill:#555761;fill-opacity:1"
       id="path1" />
    <path
       d="M398-85a1 1 0 1 0 0 2 1 1 0 0 0 0-2zm3 0a1 1 0 1 0 0 2 1 1 0 0 0 0-2zm3 0a1 1 0 1 0 0 2 1 1 0 0 0 0-2z"
       fill="#666"
       overflow="visible"
       style="marker:none;fill:#555761;fill-opacity:1"
       id="path2" />
  </g>
</svg>
