<?xml version="1.0" encoding="UTF-8" standalone="no"?>
<svg
   height="16"
   width="16"
   version="1.1"
   id="svg1"
   sodipodi:docname="weather-windy-symbolic.svg"
   inkscape:version="1.4.2 (ebf0e940d0, 2025-05-08)"
   xmlns:inkscape="http://www.inkscape.org/namespaces/inkscape"
   xmlns:sodipodi="http://sodipodi.sourceforge.net/DTD/sodipodi-0.dtd"
   xmlns="http://www.w3.org/2000/svg"
   xmlns:svg="http://www.w3.org/2000/svg">
  <defs
     id="defs1" />
  <sodipodi:namedview
     id="namedview1"
     pagecolor="#ffffff"
     bordercolor="#000000"
     borderopacity="0.25"
     inkscape:showpageshadow="2"
     inkscape:pageopacity="0.0"
     inkscape:pagecheckerboard="0"
     inkscape:deskcolor="#d1d1d1"
     inkscape:zoom="45.254834"
     inkscape:cx="1.3810679"
     inkscape:cy="12.031864"
     inkscape:window-width="1920"
     inkscape:window-height="1019"
     inkscape:window-x="0"
     inkscape:window-y="0"
     inkscape:window-maximized="1"
     inkscape:current-layer="svg1" />
  <path
     color="#000000"
     d="m 13.402414,3.0020012 c -0.703884,0.026662 -1.363603,0.3499483 -1.81592,0.8898672 -0.463833,0.5126462 0.339688,1.1879531 0.764966,0.642904 0.446127,-0.5335522 1.201328,-0.6889697 1.82192,-0.374944 0.623973,0.3129533 0.945958,1.0068497 0.784966,1.6857484 -0.158648,0.677139 -0.763393,1.1560835 -1.458936,1.1544978 H 6.4997172 c -0.6666371,0 -0.6666371,0.9998508 0,0.9998508 H 13.49941 c 0.03352,6.923e-4 0.06702,-0.00199 0.1,-0.008 1.119104,-0.044258 2.072454,-0.8274602 2.333893,-1.9163829 C 16.198728,4.9488339 15.657073,3.7870861 14.62336,3.2659618 14.245334,3.0759173 13.825193,2.9850857 13.402414,3.0020012 Z m -4.7057933,0.01 C 8.1906871,2.9471681 7.6865306,3.144213 7.3586794,3.5349232 6.9299602,4.0455197 7.6959266,4.6884237 8.1246458,4.1778272 8.2746392,3.9978526 8.5226283,3.94786 8.7326191,4.0528444 8.9426098,4.1578287 9.0476052,4.3867945 8.9936076,4.6147605 8.9420001,4.8411888 8.7398819,5.0012862 8.507629,4.9997031 c -0.00267,-2.13e-5 -0.00533,-2.13e-5 -0.008,0 H 1.4999368 c -0.66693511,-2.983e-4 -0.66693511,0.9995524 0,0.9998507 h 6.9996925 c 0.00267,2.13e-5 0.00533,2.13e-5 0.008,0 h 0.002 c 0.055117,-9.2e-6 0.1098522,-0.00913 0.1619924,-0.026996 C 9.2977997,5.9077376 9.815906,5.4568926 9.9665649,4.845726 10.170033,3.9790245 9.5795854,3.1264527 8.6966207,3.0119997 Z M 0.49998075,7.0000746 c -0.66663711,0 -0.66663711,0.9998508 0,0.9998508 H 4.499805 c 0.6666371,0 0.6666371,-0.9998508 0,-0.9998508 z M 1.450939,9.0011059 C 0.7843017,9.0344344 0.78257844,10 1.5,10 h 10.9965 c 0.0023,1.6e-5 0.0047,1.6e-5 0.007,0 0.23499,0 0.435935,0.155934 0.490933,0.3839 0.05495,0.22553 -0.0539,0.459002 -0.261989,0.561916 -0.206854,0.106345 -0.459855,0.05434 -0.607973,-0.124982 -0.425278,-0.545049 -1.228799,0.130258 -0.764966,0.642904 0.446398,0.532908 1.200675,0.688963 1.82192,0.376944 0.618972,-0.310953 0.944958,-1.013849 0.784965,-1.687748 C 13.81533,9.543485 13.298107,9.094313 12.673446,9.0301016 12.617687,9.0098619 12.559318,8.999705 12.5,9.0001061 H 1.4999368 c -0.016323,-8.007e-4 -0.032675,-8.007e-4 -0.048998,0 z m 2.0499099,1.9989691 c -0.6666373,0 -0.6666373,0.999851 0,0.999851 l 4.9997804,2e-6 c 0.00233,1.6e-5 0.00467,1.6e-5 0.007,0 0.2349896,0 0.431981,0.155708 0.4869786,0.383674 0.054954,0.22553 -0.0539,0.459001 -0.2619888,0.561915 -0.206854,0.106345 -0.4598552,0.05434 -0.6079733,-0.124981 -0.4252789,-0.545041 -1.2287911,0.130258 -0.7649664,0.642904 0.4463977,0.532908 1.2006753,0.688963 1.8219199,0.376944 C 9.8005722,13.53043 10.126558,12.826535 9.9665649,12.152636 9.6922635,11.045971 8.6007882,11.000073 8.4996293,11.000073 Z"
     fill="#666666"
     font-family="sans-serif"
     font-weight="400"
     overflow="visible"
     style="line-height:normal;font-variant-ligatures:normal;font-variant-position:normal;font-variant-caps:normal;font-variant-numeric:normal;font-variant-alternates:normal;font-feature-settings:normal;text-indent:0;text-align:start;text-decoration-line:none;text-decoration-style:solid;text-decoration-color:#000000;text-transform:none;text-orientation:mixed;shape-padding:0;isolation:auto;mix-blend-mode:normal;stroke-width:0.999993;fill:#555761;fill-opacity:1"
     white-space="normal"
     id="path1"
     sodipodi:nodetypes="ccccccsscccccsccscccccccsccsssssssccccccccccccccccccccccccccc" />
</svg>
