<?xml version="1.0" encoding="UTF-8" standalone="no"?>
<svg
   height="16"
   width="16"
   version="1.1"
   id="svg2"
   sodipodi:docname="mail-move-symbolic.svg"
   inkscape:version="1.4.2 (ebf0e940d0, 2025-05-08)"
   xmlns:inkscape="http://www.inkscape.org/namespaces/inkscape"
   xmlns:sodipodi="http://sodipodi.sourceforge.net/DTD/sodipodi-0.dtd"
   xmlns="http://www.w3.org/2000/svg"
   xmlns:svg="http://www.w3.org/2000/svg">
  <defs
     id="defs2" />
  <sodipodi:namedview
     id="namedview2"
     pagecolor="#ffffff"
     bordercolor="#000000"
     borderopacity="0.25"
     inkscape:showpageshadow="2"
     inkscape:pageopacity="0.0"
     inkscape:pagecheckerboard="0"
     inkscape:deskcolor="#d1d1d1"
     inkscape:zoom="18.05332"
     inkscape:cx="10.164335"
     inkscape:cy="8.2256338"
     inkscape:window-width="1920"
     inkscape:window-height="1019"
     inkscape:window-x="0"
     inkscape:window-y="0"
     inkscape:window-maximized="1"
     inkscape:current-layer="svg2"
     showguides="true" />
  <path
     d="M 3.5,4 C 2.67,4 2,4.669 2,5.5 v 7 C 2,13.331 2.67,14 3.5,14 h 11 c 0.831,0 1.5,-0.669 1.5,-1.5 v -7 C 16,4.669 15.331,4 14.5,4 Z M 3.975,5 H 14.024 L 9,8.871 Z M 15,5.512 V 12.5 C 15,12.777 14.777,13 14.5,13 H 3.5 C 3.22363,13.000554 2.99945,12.776372 3,12.5 V 5.514 l 5.692,4.382 c 0.015,0.013 0.034,0.016 0.05,0.026 0.018,0.01 0.036,0.019 0.055,0.027 0.038,0.017 0.075,0.03 0.115,0.037 0.03,0.006 0.058,0.006 0.088,0.006 0.03,0 0.059,0 0.088,-0.006 C 9.1277,9.9785 9.1663,9.96603 9.203,9.949 9.223,9.94 9.24,9.933 9.258,9.922 9.275,9.912 9.293,9.909 9.308,9.896 Z"
     fill="#666666"
     overflow="visible"
     style="color:#000000;isolation:auto;mix-blend-mode:normal;fill:#555761;fill-opacity:1;marker:none"
     id="path1"
     sodipodi:nodetypes="ssssssssscccccsscccccccsccccc" />
  <path
     d="M 0,2 V 3 H 1 V 2 Z M 2,2 V 3 H 3 V 2 Z M 4,2 V 3 H 5 V 2 Z M 6,2 V 3 H 7 V 2 Z M 8,2 V 3 H 9 V 2 Z m 2,0 v 1 h 1 V 2 Z m 2,0 v 1 h 1 V 2 Z M 0,4 V 5 H 1 V 4 Z M 0,6 V 7 H 1 V 6 Z M 0,8 V 9 H 1 V 8 Z m 0,2 v 1 h 1 v -1 z"
     fill="#666666"
     overflow="visible"
     style="color:#000000;isolation:auto;mix-blend-mode:normal;fill:#555761;fill-opacity:1;marker:none"
     id="path2"
     sodipodi:nodetypes="ccccccccccccccccccccccccccccccccccccccccccccccccccccccc" />
</svg>
