<?xml version="1.0" encoding="UTF-8" standalone="no"?>
<svg
   height="16"
   width="16"
   version="1.1"
   id="svg1"
   sodipodi:docname="folder-remote-symbolic.svg"
   inkscape:version="1.4.2 (ebf0e940d0, 2025-05-08)"
   xmlns:inkscape="http://www.inkscape.org/namespaces/inkscape"
   xmlns:sodipodi="http://sodipodi.sourceforge.net/DTD/sodipodi-0.dtd"
   xmlns="http://www.w3.org/2000/svg"
   xmlns:svg="http://www.w3.org/2000/svg">
  <defs
     id="defs1" />
  <sodipodi:namedview
     id="namedview1"
     pagecolor="#ffffff"
     bordercolor="#000000"
     borderopacity="0.25"
     inkscape:showpageshadow="2"
     inkscape:pageopacity="0.0"
     inkscape:pagecheckerboard="0"
     inkscape:deskcolor="#d1d1d1"
     inkscape:zoom="51.072077"
     inkscape:cx="7.9984999"
     inkscape:cy="7.9984999"
     inkscape:window-width="1920"
     inkscape:window-height="1019"
     inkscape:window-x="0"
     inkscape:window-y="0"
     inkscape:window-maximized="1"
     inkscape:current-layer="svg1" />
  <path
     color="#000000"
     d="m 9.36207,1.9999951 c -1.516,0 -2.828,0.8959596 -3.479,2.1959596 a 2.667,2.6939394 0 0 0 -1.457,-0.4383838 c -1.505,0 -2.724,1.2575757 -2.724,2.810101 0,0.2474747 0.038,0.4848484 0.096,0.7141414 A 4.196,4.2383838 0 0 0 7e-5,10.783833 c 0,2.335354 1.822,4.216162 4.085,4.216162 h 7.83 c 2.263,0 4.085,-1.880808 4.085,-4.216162 0,-1.864646 -1.167,-3.4373733 -2.787,-3.9959591 0.044,-0.2424243 0.064,-0.4919192 0.064,-0.7474748 0,-2.2313131 -1.753,-4.040404 -3.915,-4.040404 z"
     fill="#666666"
     overflow="visible"
     style="stroke-width:0.994987;marker:none;fill:#555761;fill-opacity:1"
     id="path1" />
</svg>
