<?xml version="1.0" encoding="UTF-8" standalone="no"?>
<svg
   height="16"
   width="16"
   version="1.1"
   id="svg2"
   sodipodi:docname="applications-education-symbolic.svg"
   inkscape:version="1.4.2 (ebf0e940d0, 2025-05-08)"
   xmlns:inkscape="http://www.inkscape.org/namespaces/inkscape"
   xmlns:sodipodi="http://sodipodi.sourceforge.net/DTD/sodipodi-0.dtd"
   xmlns="http://www.w3.org/2000/svg"
   xmlns:svg="http://www.w3.org/2000/svg">
  <defs
     id="defs2" />
  <sodipodi:namedview
     id="namedview2"
     pagecolor="#ffffff"
     bordercolor="#000000"
     borderopacity="0.25"
     inkscape:showpageshadow="2"
     inkscape:pageopacity="0.0"
     inkscape:pagecheckerboard="0"
     inkscape:deskcolor="#d1d1d1"
     inkscape:zoom="51.0625"
     inkscape:cx="8"
     inkscape:cy="8"
     inkscape:window-width="1920"
     inkscape:window-height="1019"
     inkscape:window-x="0"
     inkscape:window-y="0"
     inkscape:window-maximized="1"
     inkscape:current-layer="svg2" />
  <g
     color="#000"
     transform="translate(-852 -464)"
     id="g2">
    <path
       d="M853 470c-.554 0-1 .446-1 1v8c0 .554.446 1 1 1h8c.554 0 1-.446 1-1v-4h-1.955c.198.313.31.67.31 1.072 0 .71-.309 1.305-.904 1.746-.466.346-1.095.569-1.88.68a.13.13 0 0 1-.126-.059l-.353-.543a.13.13 0 0 1 .096-.199c.662-.07 1.182-.23 1.562-.468.485-.304.707-.678.707-1.165 0-.472-.19-.816-.584-1.078a1.976 1.976 0 0 1-.828-.238c-.408.914-.933 1.681-1.576 2.3.024.223.064.451.127.688a.13.13 0 0 1-.078.155l-.592.22a.13.13 0 0 1-.174-.1 36.151 36.151 0 0 1-.06-.36c-.409.256-.807.413-1.19.413-.268 0-.495-.085-.645-.26-.149-.174-.212-.421-.212-.724 0-.817.443-1.554 1.289-2.191a.13.13 0 0 0 .002-.002c.148-.109.352-.232.59-.364.007-.311.03-.667.06-1.054a15.19 15.19 0 0 1-1.033.04c-.146 0-.26-.001-.35-.007a.13.13 0 0 1-.12-.115l-.056-.573a.13.13 0 0 1 .14-.142c.22.015.44.025.655.025.288 0 .56-.013.826-.03l.006-.064a.13.13 0 0 0 0-.002l.024-.257c.013-.138.033-.304.056-.499.014-.122.022-.198.024-.226a.13.13 0 0 1 .113-.12.13.13 0 0 1 .026 0l.607.042a.13.13 0 0 1 .12.144c-.044.34-.075.632-.104.909.16-.02.32-.05.48-.075V470zm4.033 3.318c-.2.028-.391.06-.597.082-.024.24-.039.5-.05.772.266-.082.563-.141.884-.184a1.969 1.969 0 0 1-.237-.67zm.086 1.41c-.265.052-.52.12-.766.215.001.41.013.707.026.995.282-.36.53-.759.74-1.21zm-1.594.7c-.12.092-.24.172-.369.308a.13.13 0 0 0-.002.002c-.413.42-.623.815-.652 1.188v-.008c0 .027-.01.055-.014.082.006.032.014.065.014.098 0 .068.016.099.027.11.011.013.026.024.08.024.287 0 .613-.156.973-.474-.031-.354-.046-.82-.057-1.33z"
       fill="#666"
       overflow="visible"
       style="marker:none;fill:#555761;fill-opacity:1"
       id="path1" />
    <path
       d="M859 464c-.554 0-1 .446-1 1v8c0 .554.446 1 1 1h8c.554 0 1-.446 1-1v-8c0-.554-.446-1-1-1zm3.469 2h1.062l2.237 6h-1.04l-.628-1.8h-2.217l-.62 1.8h-1.03zm.531.99l-.912 2.61h1.807z"
       fill="#666"
       overflow="visible"
       style="marker:none;fill:#555761;fill-opacity:1"
       id="path2" />
  </g>
</svg>
