<?xml version="1.0" encoding="UTF-8" standalone="no"?>
<svg
   height="16"
   width="16"
   version="1.1"
   id="svg2"
   sodipodi:docname="preferences-desktop-personal-symbolic.svg"
   inkscape:version="1.4.2 (ebf0e940d0, 2025-05-08)"
   xmlns:inkscape="http://www.inkscape.org/namespaces/inkscape"
   xmlns:sodipodi="http://sodipodi.sourceforge.net/DTD/sodipodi-0.dtd"
   xmlns="http://www.w3.org/2000/svg"
   xmlns:svg="http://www.w3.org/2000/svg">
  <defs
     id="defs2" />
  <sodipodi:namedview
     id="namedview2"
     pagecolor="#ffffff"
     bordercolor="#000000"
     borderopacity="0.25"
     inkscape:showpageshadow="2"
     inkscape:pageopacity="0.0"
     inkscape:pagecheckerboard="0"
     inkscape:deskcolor="#d1d1d1"
     inkscape:zoom="51.0625"
     inkscape:cx="8"
     inkscape:cy="8"
     inkscape:window-width="1920"
     inkscape:window-height="1019"
     inkscape:window-x="0"
     inkscape:window-y="0"
     inkscape:window-maximized="1"
     inkscape:current-layer="svg2" />
  <path
     color="#000000"
     d="M 8,0 A 8,8 0 1 0 8,16 8,8 0 0 0 8,0 Z m 0,1 a 7,7 0 0 1 7,7 c 0,1.972 -0.844,3.728 -2.156,5 C 12.401,11.273 10.869,10 9,10 H 7 C 5.131,10 3.6,11.273 3.156,13 1.844,11.728 1,9.972 1,8 A 7,7 0 0 1 8,1 Z"
     fill="#666666"
     overflow="visible"
     style="marker:none;fill:#555761;fill-opacity:1"
     id="path1" />
  <path
     color="#000000"
     d="M 8,3.25 C 6.205,3.25 4.75,4.65 4.75,6.375 4.75,8.101 6.205,9.5 8,9.5 9.795,9.5 11.25,8.1 11.25,6.375 11.25,4.649 9.795,3.25 8,3.25 Z"
     fill="#666666"
     overflow="visible"
     style="marker:none;fill:#555761;fill-opacity:1"
     id="path2" />
</svg>
